<mxfile host="app.diagrams.net" modified="2022-06-20T09:39:52.714Z" agent="5.0 (Windows NT 10.0; Win64; x64) AppleWebKit/537.36 (KHTML, like Gecko) Chrome/100.0.4896.127 Safari/537.36" etag="6N51RrNmTIiipIdYJCFr" version="20.0.1" type="github">
  <diagram id="kgpKYQtTHZ0yAKxKKP6v" name="Page-1">
    <mxGraphModel dx="961" dy="651" grid="1" gridSize="10" guides="1" tooltips="1" connect="1" arrows="1" fold="1" page="1" pageScale="1" pageWidth="850" pageHeight="1100" math="0" shadow="0">
      <root>
        <mxCell id="0" />
        <mxCell id="1" parent="0" />
        <mxCell id="3Tb5udXRneWUS492nHym-1" value="平台访问接口" style="shape=umlLifeline;perimeter=lifelinePerimeter;whiteSpace=wrap;html=1;container=1;collapsible=0;recursiveResize=0;outlineConnect=0;" vertex="1" parent="1">
          <mxGeometry x="39" y="80" width="100" height="500" as="geometry" />
        </mxCell>
        <mxCell id="3Tb5udXRneWUS492nHym-2" value="" style="html=1;points=[];perimeter=orthogonalPerimeter;" vertex="1" parent="3Tb5udXRneWUS492nHym-1">
          <mxGeometry x="45" y="80" width="10" height="360" as="geometry" />
        </mxCell>
        <mxCell id="3Tb5udXRneWUS492nHym-45" value="验证数据源" style="html=1;verticalAlign=bottom;endArrow=block;rounded=0;" edge="1" parent="3Tb5udXRneWUS492nHym-1" target="3Tb5udXRneWUS492nHym-41">
          <mxGeometry width="80" relative="1" as="geometry">
            <mxPoint x="211" y="100" as="sourcePoint" />
            <mxPoint x="131" y="100" as="targetPoint" />
          </mxGeometry>
        </mxCell>
        <mxCell id="3Tb5udXRneWUS492nHym-4" value="数据结构信息统计节点" style="shape=umlLifeline;perimeter=lifelinePerimeter;whiteSpace=wrap;html=1;container=1;collapsible=0;recursiveResize=0;outlineConnect=0;" vertex="1" parent="1">
          <mxGeometry x="190" y="80" width="120" height="500" as="geometry" />
        </mxCell>
        <mxCell id="3Tb5udXRneWUS492nHym-5" value="" style="html=1;points=[];perimeter=orthogonalPerimeter;" vertex="1" parent="3Tb5udXRneWUS492nHym-4">
          <mxGeometry x="55" y="80" width="10" height="351" as="geometry" />
        </mxCell>
        <mxCell id="3Tb5udXRneWUS492nHym-6" value="获取缓存" style="html=1;verticalAlign=bottom;endArrow=block;rounded=0;" edge="1" parent="3Tb5udXRneWUS492nHym-4" target="3Tb5udXRneWUS492nHym-18">
          <mxGeometry width="80" relative="1" as="geometry">
            <mxPoint x="60" y="231" as="sourcePoint" />
            <mxPoint x="229.5" y="231" as="targetPoint" />
          </mxGeometry>
        </mxCell>
        <mxCell id="3Tb5udXRneWUS492nHym-7" value="获取存储" style="html=1;verticalAlign=bottom;endArrow=block;rounded=0;" edge="1" parent="3Tb5udXRneWUS492nHym-4" target="3Tb5udXRneWUS492nHym-22">
          <mxGeometry width="80" relative="1" as="geometry">
            <mxPoint x="60" y="341" as="sourcePoint" />
            <mxPoint x="399" y="341" as="targetPoint" />
          </mxGeometry>
        </mxCell>
        <mxCell id="3Tb5udXRneWUS492nHym-8" value="更新缓存" style="html=1;verticalAlign=bottom;endArrow=block;rounded=0;" edge="1" parent="3Tb5udXRneWUS492nHym-4" target="3Tb5udXRneWUS492nHym-18">
          <mxGeometry width="80" relative="1" as="geometry">
            <mxPoint x="60" y="421" as="sourcePoint" />
            <mxPoint x="229.5" y="421" as="targetPoint" />
          </mxGeometry>
        </mxCell>
        <mxCell id="3Tb5udXRneWUS492nHym-10" value="数据结构信息统计节点" style="shape=umlLifeline;perimeter=lifelinePerimeter;whiteSpace=wrap;html=1;container=1;collapsible=0;recursiveResize=0;outlineConnect=0;" vertex="1" parent="1">
          <mxGeometry x="150" y="1090" width="120" height="600" as="geometry" />
        </mxCell>
        <mxCell id="3Tb5udXRneWUS492nHym-11" value="" style="html=1;points=[];perimeter=orthogonalPerimeter;" vertex="1" parent="3Tb5udXRneWUS492nHym-10">
          <mxGeometry x="55" y="70" width="10" height="482" as="geometry" />
        </mxCell>
        <mxCell id="3Tb5udXRneWUS492nHym-12" value="信息获取" style="html=1;verticalAlign=bottom;endArrow=block;rounded=0;entryX=-0.3;entryY=0.03;entryDx=0;entryDy=0;entryPerimeter=0;" edge="1" parent="3Tb5udXRneWUS492nHym-10" target="3Tb5udXRneWUS492nHym-16">
          <mxGeometry width="80" relative="1" as="geometry">
            <mxPoint x="60" y="182" as="sourcePoint" />
            <mxPoint x="282.5" y="182" as="targetPoint" />
          </mxGeometry>
        </mxCell>
        <mxCell id="3Tb5udXRneWUS492nHym-13" value="信息更新" style="html=1;verticalAlign=bottom;endArrow=block;rounded=0;" edge="1" parent="3Tb5udXRneWUS492nHym-10" target="3Tb5udXRneWUS492nHym-29">
          <mxGeometry x="0.0745" width="80" relative="1" as="geometry">
            <mxPoint x="60" y="272" as="sourcePoint" />
            <mxPoint x="469.5" y="272" as="targetPoint" />
            <mxPoint as="offset" />
          </mxGeometry>
        </mxCell>
        <mxCell id="3Tb5udXRneWUS492nHym-14" value="缓存更新" style="html=1;verticalAlign=bottom;endArrow=block;rounded=0;" edge="1" parent="3Tb5udXRneWUS492nHym-10" target="3Tb5udXRneWUS492nHym-33">
          <mxGeometry width="80" relative="1" as="geometry">
            <mxPoint x="60" y="382" as="sourcePoint" />
            <mxPoint x="639.5" y="382" as="targetPoint" />
          </mxGeometry>
        </mxCell>
        <mxCell id="3Tb5udXRneWUS492nHym-54" value="获取数据源连接参数" style="html=1;verticalAlign=bottom;endArrow=block;rounded=0;" edge="1" parent="3Tb5udXRneWUS492nHym-10" target="3Tb5udXRneWUS492nHym-52">
          <mxGeometry width="80" relative="1" as="geometry">
            <mxPoint x="60" y="80" as="sourcePoint" />
            <mxPoint x="140" y="80" as="targetPoint" />
          </mxGeometry>
        </mxCell>
        <mxCell id="3Tb5udXRneWUS492nHym-15" value="分散数据库信息采集聚合模块" style="shape=umlLifeline;perimeter=lifelinePerimeter;whiteSpace=wrap;html=1;container=1;collapsible=0;recursiveResize=0;outlineConnect=0;" vertex="1" parent="1">
          <mxGeometry x="465" y="1090" width="120" height="600" as="geometry" />
        </mxCell>
        <mxCell id="3Tb5udXRneWUS492nHym-16" value="" style="html=1;points=[];perimeter=orthogonalPerimeter;" vertex="1" parent="3Tb5udXRneWUS492nHym-15">
          <mxGeometry x="55" y="182" width="10" height="50" as="geometry" />
        </mxCell>
        <mxCell id="3Tb5udXRneWUS492nHym-17" value="管理信息、元数据信息、负载信息" style="html=1;verticalAlign=bottom;endArrow=open;dashed=1;endSize=8;rounded=0;" edge="1" parent="1" source="3Tb5udXRneWUS492nHym-15">
          <mxGeometry relative="1" as="geometry">
            <mxPoint x="430" y="1322" as="sourcePoint" />
            <mxPoint x="209.25000000000023" y="1322" as="targetPoint" />
          </mxGeometry>
        </mxCell>
        <mxCell id="3Tb5udXRneWUS492nHym-18" value="redis" style="shape=umlLifeline;perimeter=lifelinePerimeter;whiteSpace=wrap;html=1;container=1;collapsible=0;recursiveResize=0;outlineConnect=0;" vertex="1" parent="1">
          <mxGeometry x="490" y="80" width="120" height="500" as="geometry" />
        </mxCell>
        <mxCell id="3Tb5udXRneWUS492nHym-19" value="" style="html=1;points=[];perimeter=orthogonalPerimeter;" vertex="1" parent="3Tb5udXRneWUS492nHym-18">
          <mxGeometry x="55" y="201" width="10" height="110" as="geometry" />
        </mxCell>
        <mxCell id="3Tb5udXRneWUS492nHym-20" value="" style="html=1;points=[];perimeter=orthogonalPerimeter;" vertex="1" parent="3Tb5udXRneWUS492nHym-18">
          <mxGeometry x="60" y="251" width="10" height="40" as="geometry" />
        </mxCell>
        <mxCell id="3Tb5udXRneWUS492nHym-21" value="缓存是否命中" style="edgeStyle=orthogonalEdgeStyle;html=1;align=left;spacingLeft=2;endArrow=block;rounded=0;entryX=1;entryY=0;" edge="1" parent="3Tb5udXRneWUS492nHym-18" target="3Tb5udXRneWUS492nHym-20">
          <mxGeometry relative="1" as="geometry">
            <mxPoint x="65" y="231" as="sourcePoint" />
            <Array as="points">
              <mxPoint x="95" y="231" />
            </Array>
          </mxGeometry>
        </mxCell>
        <mxCell id="3Tb5udXRneWUS492nHym-22" value="Mysql" style="shape=umlLifeline;perimeter=lifelinePerimeter;whiteSpace=wrap;html=1;container=1;collapsible=0;recursiveResize=0;outlineConnect=0;" vertex="1" parent="1">
          <mxGeometry x="660" y="80" width="119" height="500" as="geometry" />
        </mxCell>
        <mxCell id="3Tb5udXRneWUS492nHym-23" value="&lt;br&gt;未命中，返回信号" style="html=1;verticalAlign=bottom;endArrow=open;dashed=1;endSize=8;rounded=0;" edge="1" parent="1" target="3Tb5udXRneWUS492nHym-4">
          <mxGeometry x="-0.0968" y="-10" relative="1" as="geometry">
            <mxPoint x="540" y="387" as="sourcePoint" />
            <mxPoint x="385" y="387" as="targetPoint" />
            <mxPoint as="offset" />
          </mxGeometry>
        </mxCell>
        <mxCell id="3Tb5udXRneWUS492nHym-24" value="" style="html=1;points=[];perimeter=orthogonalPerimeter;" vertex="1" parent="1">
          <mxGeometry x="715" y="411" width="10" height="60" as="geometry" />
        </mxCell>
        <mxCell id="3Tb5udXRneWUS492nHym-25" value="返回信息" style="html=1;verticalAlign=bottom;endArrow=open;dashed=1;endSize=8;rounded=0;" edge="1" parent="1" target="3Tb5udXRneWUS492nHym-5">
          <mxGeometry relative="1" as="geometry">
            <mxPoint x="720" y="471" as="sourcePoint" />
            <mxPoint x="640" y="471" as="targetPoint" />
          </mxGeometry>
        </mxCell>
        <mxCell id="3Tb5udXRneWUS492nHym-26" value="" style="html=1;points=[];perimeter=orthogonalPerimeter;" vertex="1" parent="1">
          <mxGeometry x="545" y="491" width="10" height="80" as="geometry" />
        </mxCell>
        <mxCell id="3Tb5udXRneWUS492nHym-27" value="" style="html=1;points=[];perimeter=orthogonalPerimeter;" vertex="1" parent="1">
          <mxGeometry x="550" y="521" width="10" height="40" as="geometry" />
        </mxCell>
        <mxCell id="3Tb5udXRneWUS492nHym-28" value="缓存更新" style="edgeStyle=orthogonalEdgeStyle;html=1;align=left;spacingLeft=2;endArrow=block;rounded=0;entryX=1;entryY=0;" edge="1" parent="1" target="3Tb5udXRneWUS492nHym-27">
          <mxGeometry relative="1" as="geometry">
            <mxPoint x="555" y="501" as="sourcePoint" />
            <Array as="points">
              <mxPoint x="585" y="501" />
            </Array>
          </mxGeometry>
        </mxCell>
        <mxCell id="3Tb5udXRneWUS492nHym-29" value="Mysql" style="shape=umlLifeline;perimeter=lifelinePerimeter;whiteSpace=wrap;html=1;container=1;collapsible=0;recursiveResize=0;outlineConnect=0;" vertex="1" parent="1">
          <mxGeometry x="652" y="1090" width="120" height="600" as="geometry" />
        </mxCell>
        <mxCell id="3Tb5udXRneWUS492nHym-30" value="" style="html=1;points=[];perimeter=orthogonalPerimeter;" vertex="1" parent="3Tb5udXRneWUS492nHym-29">
          <mxGeometry x="55" y="262" width="10" height="100" as="geometry" />
        </mxCell>
        <mxCell id="3Tb5udXRneWUS492nHym-31" value="" style="html=1;points=[];perimeter=orthogonalPerimeter;" vertex="1" parent="3Tb5udXRneWUS492nHym-29">
          <mxGeometry x="60" y="312" width="10" height="40" as="geometry" />
        </mxCell>
        <mxCell id="3Tb5udXRneWUS492nHym-32" value="信息更新" style="edgeStyle=orthogonalEdgeStyle;html=1;align=left;spacingLeft=2;endArrow=block;rounded=0;entryX=1;entryY=0;exitX=1.06;exitY=0.51;exitDx=0;exitDy=0;exitPerimeter=0;" edge="1" parent="3Tb5udXRneWUS492nHym-29" source="3Tb5udXRneWUS492nHym-30" target="3Tb5udXRneWUS492nHym-31">
          <mxGeometry x="0.2505" y="-5" relative="1" as="geometry">
            <mxPoint x="65" y="192" as="sourcePoint" />
            <Array as="points">
              <mxPoint x="95" y="293" />
              <mxPoint x="95" y="312" />
            </Array>
            <mxPoint as="offset" />
          </mxGeometry>
        </mxCell>
        <mxCell id="3Tb5udXRneWUS492nHym-33" value="Redis" style="shape=umlLifeline;perimeter=lifelinePerimeter;whiteSpace=wrap;html=1;container=1;collapsible=0;recursiveResize=0;outlineConnect=0;" vertex="1" parent="1">
          <mxGeometry x="822" y="1090" width="120" height="600" as="geometry" />
        </mxCell>
        <mxCell id="3Tb5udXRneWUS492nHym-34" value="" style="html=1;points=[];perimeter=orthogonalPerimeter;" vertex="1" parent="3Tb5udXRneWUS492nHym-33">
          <mxGeometry x="55" y="372" width="10" height="180" as="geometry" />
        </mxCell>
        <mxCell id="3Tb5udXRneWUS492nHym-35" value="" style="html=1;points=[];perimeter=orthogonalPerimeter;" vertex="1" parent="3Tb5udXRneWUS492nHym-33">
          <mxGeometry x="60" y="422" width="10" height="40" as="geometry" />
        </mxCell>
        <mxCell id="3Tb5udXRneWUS492nHym-36" value="删除缓存" style="edgeStyle=orthogonalEdgeStyle;html=1;align=left;spacingLeft=2;endArrow=block;rounded=0;entryX=1;entryY=0;" edge="1" parent="3Tb5udXRneWUS492nHym-33" target="3Tb5udXRneWUS492nHym-35">
          <mxGeometry relative="1" as="geometry">
            <mxPoint x="65" y="402" as="sourcePoint" />
            <Array as="points">
              <mxPoint x="95" y="402" />
            </Array>
          </mxGeometry>
        </mxCell>
        <mxCell id="3Tb5udXRneWUS492nHym-37" value="" style="html=1;points=[];perimeter=orthogonalPerimeter;" vertex="1" parent="3Tb5udXRneWUS492nHym-33">
          <mxGeometry x="60" y="492" width="10" height="40" as="geometry" />
        </mxCell>
        <mxCell id="3Tb5udXRneWUS492nHym-38" value="添加缓存" style="edgeStyle=orthogonalEdgeStyle;html=1;align=left;spacingLeft=2;endArrow=block;rounded=0;entryX=1;entryY=0;" edge="1" parent="3Tb5udXRneWUS492nHym-33" target="3Tb5udXRneWUS492nHym-37">
          <mxGeometry relative="1" as="geometry">
            <mxPoint x="65" y="472" as="sourcePoint" />
            <Array as="points">
              <mxPoint x="95" y="472" />
            </Array>
          </mxGeometry>
        </mxCell>
        <mxCell id="3Tb5udXRneWUS492nHym-39" value="更新成功" style="html=1;verticalAlign=bottom;endArrow=open;dashed=1;endSize=8;rounded=0;exitX=0.8;exitY=1.015;exitDx=0;exitDy=0;exitPerimeter=0;" edge="1" parent="1" source="3Tb5udXRneWUS492nHym-30">
          <mxGeometry x="-0.0744" y="-10" relative="1" as="geometry">
            <mxPoint x="620" y="1452" as="sourcePoint" />
            <mxPoint x="209.25000000000023" y="1452" as="targetPoint" />
            <mxPoint x="1" as="offset" />
          </mxGeometry>
        </mxCell>
        <mxCell id="3Tb5udXRneWUS492nHym-40" value="更新成功" style="html=1;verticalAlign=bottom;endArrow=open;dashed=1;endSize=8;rounded=0;" edge="1" parent="1" source="3Tb5udXRneWUS492nHym-34">
          <mxGeometry relative="1" as="geometry">
            <mxPoint x="790" y="1632" as="sourcePoint" />
            <mxPoint x="209.25000000000023" y="1632" as="targetPoint" />
          </mxGeometry>
        </mxCell>
        <mxCell id="3Tb5udXRneWUS492nHym-41" value="数据源维护节点" style="shape=umlLifeline;perimeter=lifelinePerimeter;whiteSpace=wrap;html=1;container=1;collapsible=0;recursiveResize=0;outlineConnect=0;" vertex="1" parent="1">
          <mxGeometry x="350" y="80" width="100" height="500" as="geometry" />
        </mxCell>
        <mxCell id="3Tb5udXRneWUS492nHym-46" value="" style="html=1;points=[];perimeter=orthogonalPerimeter;" vertex="1" parent="3Tb5udXRneWUS492nHym-41">
          <mxGeometry x="45" y="90" width="10" height="90" as="geometry" />
        </mxCell>
        <mxCell id="3Tb5udXRneWUS492nHym-47" value="" style="html=1;points=[];perimeter=orthogonalPerimeter;" vertex="1" parent="3Tb5udXRneWUS492nHym-41">
          <mxGeometry x="50" y="130" width="10" height="40" as="geometry" />
        </mxCell>
        <mxCell id="3Tb5udXRneWUS492nHym-48" value="验证数据源是否存在" style="edgeStyle=orthogonalEdgeStyle;html=1;align=left;spacingLeft=2;endArrow=block;rounded=0;entryX=1;entryY=0;" edge="1" target="3Tb5udXRneWUS492nHym-47" parent="3Tb5udXRneWUS492nHym-41">
          <mxGeometry relative="1" as="geometry">
            <mxPoint x="55" y="110" as="sourcePoint" />
            <Array as="points">
              <mxPoint x="85" y="110" />
            </Array>
          </mxGeometry>
        </mxCell>
        <mxCell id="3Tb5udXRneWUS492nHym-49" value="验证成功" style="html=1;verticalAlign=bottom;endArrow=open;dashed=1;endSize=8;rounded=0;exitX=0;exitY=0.972;exitDx=0;exitDy=0;exitPerimeter=0;" edge="1" parent="1" source="3Tb5udXRneWUS492nHym-46">
          <mxGeometry relative="1" as="geometry">
            <mxPoint x="230" y="260" as="sourcePoint" />
            <mxPoint x="250" y="257" as="targetPoint" />
          </mxGeometry>
        </mxCell>
        <mxCell id="3Tb5udXRneWUS492nHym-51" value="数据结构信息" style="html=1;verticalAlign=bottom;endArrow=open;dashed=1;endSize=8;rounded=0;" edge="1" parent="1" target="3Tb5udXRneWUS492nHym-1">
          <mxGeometry relative="1" as="geometry">
            <mxPoint x="250" y="510" as="sourcePoint" />
            <mxPoint x="300" y="510" as="targetPoint" />
          </mxGeometry>
        </mxCell>
        <mxCell id="3Tb5udXRneWUS492nHym-52" value="数据源连接参数管理节点" style="shape=umlLifeline;perimeter=lifelinePerimeter;whiteSpace=wrap;html=1;container=1;collapsible=0;recursiveResize=0;outlineConnect=0;" vertex="1" parent="1">
          <mxGeometry x="320" y="1090" width="100" height="600" as="geometry" />
        </mxCell>
        <mxCell id="3Tb5udXRneWUS492nHym-53" value="" style="html=1;points=[];perimeter=orthogonalPerimeter;" vertex="1" parent="3Tb5udXRneWUS492nHym-52">
          <mxGeometry x="45" y="70" width="10" height="80" as="geometry" />
        </mxCell>
        <mxCell id="3Tb5udXRneWUS492nHym-55" value="数据源连接参数" style="html=1;verticalAlign=bottom;endArrow=open;dashed=1;endSize=8;rounded=0;" edge="1" parent="1" target="3Tb5udXRneWUS492nHym-10">
          <mxGeometry relative="1" as="geometry">
            <mxPoint x="370" y="1230" as="sourcePoint" />
            <mxPoint x="290" y="1230" as="targetPoint" />
          </mxGeometry>
        </mxCell>
        <mxCell id="3Tb5udXRneWUS492nHym-50" value="获取数据结构信息" style="html=1;verticalAlign=bottom;endArrow=block;rounded=0;" edge="1" parent="1" source="3Tb5udXRneWUS492nHym-2" target="3Tb5udXRneWUS492nHym-4">
          <mxGeometry width="80" relative="1" as="geometry">
            <mxPoint x="90" y="290" as="sourcePoint" />
            <mxPoint x="170" y="290" as="targetPoint" />
            <Array as="points">
              <mxPoint x="180" y="170" />
            </Array>
          </mxGeometry>
        </mxCell>
      </root>
    </mxGraphModel>
  </diagram>
</mxfile>
